<mxfile host="app.diagrams.net" agent="Mozilla/5.0 (Macintosh; Intel Mac OS X 10_15_7) AppleWebKit/605.1.15 (KHTML, like Gecko) Version/17.6 Safari/605.1.15" version="26.2.10">
  <diagram id="C5RBs43oDa-KdzZeNtuy" name="Page-1">
    <mxGraphModel dx="4192" dy="1145" grid="1" gridSize="10" guides="1" tooltips="1" connect="1" arrows="1" fold="1" page="1" pageScale="1" pageWidth="3300" pageHeight="4681" background="none" math="0" shadow="0">
      <root>
        <mxCell id="WIyWlLk6GJQsqaUBKTNV-0" />
        <mxCell id="WIyWlLk6GJQsqaUBKTNV-1" parent="WIyWlLk6GJQsqaUBKTNV-0" />
        <mxCell id="hxK-bMpqANBksW4O4nug-61" style="edgeStyle=orthogonalEdgeStyle;rounded=0;orthogonalLoop=1;jettySize=auto;html=1;exitX=0.5;exitY=1;exitDx=0;exitDy=0;entryX=0.5;entryY=0;entryDx=0;entryDy=0;endArrow=none;startFill=0;" edge="1" parent="WIyWlLk6GJQsqaUBKTNV-1" source="hxK-bMpqANBksW4O4nug-2" target="hxK-bMpqANBksW4O4nug-58">
          <mxGeometry relative="1" as="geometry" />
        </mxCell>
        <mxCell id="hxK-bMpqANBksW4O4nug-2" value="Personas" style="rounded=0;whiteSpace=wrap;html=1;" vertex="1" parent="WIyWlLk6GJQsqaUBKTNV-1">
          <mxGeometry x="798.75" y="110" width="201.25" height="70" as="geometry" />
        </mxCell>
        <mxCell id="hxK-bMpqANBksW4O4nug-65" style="edgeStyle=orthogonalEdgeStyle;rounded=0;orthogonalLoop=1;jettySize=auto;html=1;exitX=0.5;exitY=0;exitDx=0;exitDy=0;entryX=1;entryY=0.5;entryDx=0;entryDy=0;endArrow=none;startFill=0;" edge="1" parent="WIyWlLk6GJQsqaUBKTNV-1" source="hxK-bMpqANBksW4O4nug-3" target="hxK-bMpqANBksW4O4nug-55">
          <mxGeometry relative="1" as="geometry" />
        </mxCell>
        <mxCell id="hxK-bMpqANBksW4O4nug-105" style="edgeStyle=orthogonalEdgeStyle;rounded=0;orthogonalLoop=1;jettySize=auto;html=1;exitX=0.5;exitY=1;exitDx=0;exitDy=0;entryX=0;entryY=0.5;entryDx=0;entryDy=0;" edge="1" parent="WIyWlLk6GJQsqaUBKTNV-1" source="hxK-bMpqANBksW4O4nug-3" target="hxK-bMpqANBksW4O4nug-5">
          <mxGeometry relative="1" as="geometry" />
        </mxCell>
        <mxCell id="hxK-bMpqANBksW4O4nug-3" value="Usuarios" style="rounded=0;whiteSpace=wrap;html=1;" vertex="1" parent="WIyWlLk6GJQsqaUBKTNV-1">
          <mxGeometry x="305" y="230" width="199.99" height="70" as="geometry" />
        </mxCell>
        <mxCell id="hxK-bMpqANBksW4O4nug-5" value="Agenda" style="rounded=0;whiteSpace=wrap;html=1;" vertex="1" parent="WIyWlLk6GJQsqaUBKTNV-1">
          <mxGeometry x="800" y="320" width="205.62" height="70" as="geometry" />
        </mxCell>
        <mxCell id="hxK-bMpqANBksW4O4nug-106" style="edgeStyle=orthogonalEdgeStyle;rounded=0;orthogonalLoop=1;jettySize=auto;html=1;exitX=0.5;exitY=0;exitDx=0;exitDy=0;" edge="1" parent="WIyWlLk6GJQsqaUBKTNV-1" source="hxK-bMpqANBksW4O4nug-6" target="hxK-bMpqANBksW4O4nug-5">
          <mxGeometry relative="1" as="geometry" />
        </mxCell>
        <mxCell id="hxK-bMpqANBksW4O4nug-6" value="Reserva" style="rounded=0;whiteSpace=wrap;html=1;" vertex="1" parent="WIyWlLk6GJQsqaUBKTNV-1">
          <mxGeometry x="798.75" y="500" width="205" height="70" as="geometry" />
        </mxCell>
        <mxCell id="hxK-bMpqANBksW4O4nug-98" style="edgeStyle=orthogonalEdgeStyle;rounded=0;orthogonalLoop=1;jettySize=auto;html=1;exitX=0.5;exitY=0;exitDx=0;exitDy=0;entryX=0.5;entryY=1;entryDx=0;entryDy=0;" edge="1" parent="WIyWlLk6GJQsqaUBKTNV-1" source="hxK-bMpqANBksW4O4nug-7" target="hxK-bMpqANBksW4O4nug-6">
          <mxGeometry relative="1" as="geometry">
            <mxPoint x="760.2222222222217" y="600" as="targetPoint" />
          </mxGeometry>
        </mxCell>
        <mxCell id="hxK-bMpqANBksW4O4nug-7" value="Hospedaje" style="rounded=0;whiteSpace=wrap;html=1;" vertex="1" parent="WIyWlLk6GJQsqaUBKTNV-1">
          <mxGeometry x="660" y="660" width="200" height="70" as="geometry" />
        </mxCell>
        <mxCell id="hxK-bMpqANBksW4O4nug-101" style="edgeStyle=orthogonalEdgeStyle;rounded=0;orthogonalLoop=1;jettySize=auto;html=1;exitX=0.5;exitY=0;exitDx=0;exitDy=0;entryX=0.5;entryY=1;entryDx=0;entryDy=0;" edge="1" parent="WIyWlLk6GJQsqaUBKTNV-1" source="hxK-bMpqANBksW4O4nug-8" target="hxK-bMpqANBksW4O4nug-7">
          <mxGeometry relative="1" as="geometry" />
        </mxCell>
        <mxCell id="hxK-bMpqANBksW4O4nug-8" value="Hotel" style="rounded=0;whiteSpace=wrap;html=1;" vertex="1" parent="WIyWlLk6GJQsqaUBKTNV-1">
          <mxGeometry x="558.75" y="870" width="202.5" height="70" as="geometry" />
        </mxCell>
        <mxCell id="hxK-bMpqANBksW4O4nug-102" style="edgeStyle=orthogonalEdgeStyle;rounded=0;orthogonalLoop=1;jettySize=auto;html=1;exitX=0.5;exitY=0;exitDx=0;exitDy=0;" edge="1" parent="WIyWlLk6GJQsqaUBKTNV-1" source="hxK-bMpqANBksW4O4nug-9">
          <mxGeometry relative="1" as="geometry">
            <mxPoint x="760" y="720" as="targetPoint" />
          </mxGeometry>
        </mxCell>
        <mxCell id="hxK-bMpqANBksW4O4nug-9" value="Airbnb" style="rounded=0;whiteSpace=wrap;html=1;" vertex="1" parent="WIyWlLk6GJQsqaUBKTNV-1">
          <mxGeometry x="840" y="880" width="202.5" height="70" as="geometry" />
        </mxCell>
        <mxCell id="hxK-bMpqANBksW4O4nug-100" style="edgeStyle=orthogonalEdgeStyle;rounded=0;orthogonalLoop=1;jettySize=auto;html=1;exitX=0.5;exitY=0;exitDx=0;exitDy=0;" edge="1" parent="WIyWlLk6GJQsqaUBKTNV-1" source="hxK-bMpqANBksW4O4nug-10">
          <mxGeometry relative="1" as="geometry">
            <mxPoint x="900.5405405405405" y="570" as="targetPoint" />
          </mxGeometry>
        </mxCell>
        <mxCell id="hxK-bMpqANBksW4O4nug-10" value="Panoramas" style="rounded=0;whiteSpace=wrap;html=1;" vertex="1" parent="WIyWlLk6GJQsqaUBKTNV-1">
          <mxGeometry x="360" y="660" width="203.75" height="70" as="geometry" />
        </mxCell>
        <mxCell id="hxK-bMpqANBksW4O4nug-99" style="edgeStyle=orthogonalEdgeStyle;rounded=0;orthogonalLoop=1;jettySize=auto;html=1;exitX=0.5;exitY=0;exitDx=0;exitDy=0;entryX=0.5;entryY=1;entryDx=0;entryDy=0;" edge="1" parent="WIyWlLk6GJQsqaUBKTNV-1" source="hxK-bMpqANBksW4O4nug-11" target="hxK-bMpqANBksW4O4nug-6">
          <mxGeometry relative="1" as="geometry" />
        </mxCell>
        <mxCell id="hxK-bMpqANBksW4O4nug-11" value="Transporte" style="rounded=0;whiteSpace=wrap;html=1;" vertex="1" parent="WIyWlLk6GJQsqaUBKTNV-1">
          <mxGeometry x="980" y="660" width="200" height="70" as="geometry" />
        </mxCell>
        <mxCell id="hxK-bMpqANBksW4O4nug-107" style="edgeStyle=orthogonalEdgeStyle;rounded=0;orthogonalLoop=1;jettySize=auto;html=1;exitX=0.5;exitY=0;exitDx=0;exitDy=0;entryX=0.5;entryY=1;entryDx=0;entryDy=0;" edge="1" parent="WIyWlLk6GJQsqaUBKTNV-1" source="hxK-bMpqANBksW4O4nug-13" target="hxK-bMpqANBksW4O4nug-3">
          <mxGeometry relative="1" as="geometry" />
        </mxCell>
        <mxCell id="hxK-bMpqANBksW4O4nug-13" value="Review" style="rounded=0;whiteSpace=wrap;html=1;" vertex="1" parent="WIyWlLk6GJQsqaUBKTNV-1">
          <mxGeometry x="199.99999999999997" y="490" width="203.75" height="70" as="geometry" />
        </mxCell>
        <mxCell id="hxK-bMpqANBksW4O4nug-15" value="Trenes" style="rounded=0;whiteSpace=wrap;html=1;" vertex="1" parent="WIyWlLk6GJQsqaUBKTNV-1">
          <mxGeometry x="1355.94" y="760" width="140" height="50" as="geometry" />
        </mxCell>
        <mxCell id="hxK-bMpqANBksW4O4nug-16" value="Buses" style="rounded=0;whiteSpace=wrap;html=1;" vertex="1" parent="WIyWlLk6GJQsqaUBKTNV-1">
          <mxGeometry x="1295" y="600" width="140" height="50" as="geometry" />
        </mxCell>
        <mxCell id="hxK-bMpqANBksW4O4nug-17" style="edgeStyle=orthogonalEdgeStyle;rounded=0;orthogonalLoop=1;jettySize=auto;html=1;exitX=0.5;exitY=1;exitDx=0;exitDy=0;" edge="1" parent="WIyWlLk6GJQsqaUBKTNV-1" source="hxK-bMpqANBksW4O4nug-16" target="hxK-bMpqANBksW4O4nug-16">
          <mxGeometry relative="1" as="geometry" />
        </mxCell>
        <mxCell id="hxK-bMpqANBksW4O4nug-18" value="Aviones" style="rounded=0;whiteSpace=wrap;html=1;" vertex="1" parent="WIyWlLk6GJQsqaUBKTNV-1">
          <mxGeometry x="1260" y="670" width="140" height="50" as="geometry" />
        </mxCell>
        <mxCell id="hxK-bMpqANBksW4O4nug-103" style="edgeStyle=orthogonalEdgeStyle;rounded=0;orthogonalLoop=1;jettySize=auto;html=1;exitX=0.5;exitY=0;exitDx=0;exitDy=0;entryX=0.5;entryY=1;entryDx=0;entryDy=0;" edge="1" parent="WIyWlLk6GJQsqaUBKTNV-1" source="hxK-bMpqANBksW4O4nug-19" target="hxK-bMpqANBksW4O4nug-8">
          <mxGeometry relative="1" as="geometry" />
        </mxCell>
        <mxCell id="hxK-bMpqANBksW4O4nug-19" value="Habitacion Hotel" style="shape=ext;double=1;rounded=0;whiteSpace=wrap;html=1;" vertex="1" parent="WIyWlLk6GJQsqaUBKTNV-1">
          <mxGeometry x="560" y="1020" width="200" height="70" as="geometry" />
        </mxCell>
        <mxCell id="hxK-bMpqANBksW4O4nug-108" style="edgeStyle=orthogonalEdgeStyle;rounded=0;orthogonalLoop=1;jettySize=auto;html=1;exitX=0.5;exitY=0;exitDx=0;exitDy=0;entryX=0.5;entryY=1;entryDx=0;entryDy=0;" edge="1" parent="WIyWlLk6GJQsqaUBKTNV-1" source="hxK-bMpqANBksW4O4nug-20" target="hxK-bMpqANBksW4O4nug-10">
          <mxGeometry relative="1" as="geometry" />
        </mxCell>
        <mxCell id="hxK-bMpqANBksW4O4nug-20" value="Participante&lt;div&gt;Panorama&lt;/div&gt;" style="shape=ext;double=1;rounded=0;whiteSpace=wrap;html=1;" vertex="1" parent="WIyWlLk6GJQsqaUBKTNV-1">
          <mxGeometry x="362.97" y="780" width="197.81" height="70" as="geometry" />
        </mxCell>
        <mxCell id="hxK-bMpqANBksW4O4nug-36" value="&lt;u&gt;correo&lt;/u&gt;" style="ellipse;whiteSpace=wrap;html=1;" vertex="1" parent="WIyWlLk6GJQsqaUBKTNV-1">
          <mxGeometry x="640" y="40" width="75" height="30" as="geometry" />
        </mxCell>
        <mxCell id="hxK-bMpqANBksW4O4nug-37" value="nombre" style="ellipse;whiteSpace=wrap;html=1;" vertex="1" parent="WIyWlLk6GJQsqaUBKTNV-1">
          <mxGeometry x="730" y="40" width="65" height="30" as="geometry" />
        </mxCell>
        <mxCell id="hxK-bMpqANBksW4O4nug-38" value="contrasena" style="ellipse;whiteSpace=wrap;html=1;" vertex="1" parent="WIyWlLk6GJQsqaUBKTNV-1">
          <mxGeometry x="810" y="40" width="70" height="30" as="geometry" />
        </mxCell>
        <mxCell id="hxK-bMpqANBksW4O4nug-39" value="nombre&lt;div&gt;usuario&lt;/div&gt;" style="ellipse;whiteSpace=wrap;html=1;" vertex="1" parent="WIyWlLk6GJQsqaUBKTNV-1">
          <mxGeometry x="886.25" y="35" width="62.5" height="40" as="geometry" />
        </mxCell>
        <mxCell id="hxK-bMpqANBksW4O4nug-40" value="telefono" style="ellipse;whiteSpace=wrap;html=1;" vertex="1" parent="WIyWlLk6GJQsqaUBKTNV-1">
          <mxGeometry x="962.19" y="40" width="55" height="30" as="geometry" />
        </mxCell>
        <mxCell id="hxK-bMpqANBksW4O4nug-41" value="rut" style="ellipse;whiteSpace=wrap;html=1;" vertex="1" parent="WIyWlLk6GJQsqaUBKTNV-1">
          <mxGeometry x="1030" y="40" width="55" height="30" as="geometry" />
        </mxCell>
        <mxCell id="hxK-bMpqANBksW4O4nug-42" value="dv" style="ellipse;whiteSpace=wrap;html=1;" vertex="1" parent="WIyWlLk6GJQsqaUBKTNV-1">
          <mxGeometry x="1100" y="40" width="55" height="30" as="geometry" />
        </mxCell>
        <mxCell id="hxK-bMpqANBksW4O4nug-55" value="" style="triangle;whiteSpace=wrap;html=1;rotation=90;" vertex="1" parent="WIyWlLk6GJQsqaUBKTNV-1">
          <mxGeometry x="387.81000000000006" y="140" width="34.38" height="50" as="geometry" />
        </mxCell>
        <mxCell id="hxK-bMpqANBksW4O4nug-66" style="edgeStyle=orthogonalEdgeStyle;rounded=0;orthogonalLoop=1;jettySize=auto;html=1;exitX=0.5;exitY=0;exitDx=0;exitDy=0;entryX=1;entryY=0.5;entryDx=0;entryDy=0;endArrow=none;startFill=0;" edge="1" parent="WIyWlLk6GJQsqaUBKTNV-1" source="hxK-bMpqANBksW4O4nug-57" target="hxK-bMpqANBksW4O4nug-62">
          <mxGeometry relative="1" as="geometry" />
        </mxCell>
        <mxCell id="hxK-bMpqANBksW4O4nug-57" value="Empleados" style="rounded=0;whiteSpace=wrap;html=1;" vertex="1" parent="WIyWlLk6GJQsqaUBKTNV-1">
          <mxGeometry x="1203.13" y="280" width="201.25" height="70" as="geometry" />
        </mxCell>
        <mxCell id="hxK-bMpqANBksW4O4nug-58" value="IsA" style="text;html=1;align=center;verticalAlign=middle;whiteSpace=wrap;rounded=0;" vertex="1" parent="WIyWlLk6GJQsqaUBKTNV-1">
          <mxGeometry x="375" y="147.19" width="60" height="30" as="geometry" />
        </mxCell>
        <mxCell id="hxK-bMpqANBksW4O4nug-62" value="" style="triangle;whiteSpace=wrap;html=1;rotation=90;" vertex="1" parent="WIyWlLk6GJQsqaUBKTNV-1">
          <mxGeometry x="1286.56" y="190" width="34.38" height="50" as="geometry" />
        </mxCell>
        <mxCell id="hxK-bMpqANBksW4O4nug-64" style="edgeStyle=orthogonalEdgeStyle;rounded=0;orthogonalLoop=1;jettySize=auto;html=1;exitX=0.5;exitY=0;exitDx=0;exitDy=0;endArrow=none;startFill=0;" edge="1" parent="WIyWlLk6GJQsqaUBKTNV-1" source="hxK-bMpqANBksW4O4nug-63">
          <mxGeometry relative="1" as="geometry">
            <mxPoint x="900" y="190" as="targetPoint" />
            <Array as="points">
              <mxPoint x="1000" y="200" />
              <mxPoint x="901" y="200" />
              <mxPoint x="901" y="190" />
            </Array>
          </mxGeometry>
        </mxCell>
        <mxCell id="hxK-bMpqANBksW4O4nug-63" value="IsA" style="text;html=1;align=center;verticalAlign=middle;whiteSpace=wrap;rounded=0;" vertex="1" parent="WIyWlLk6GJQsqaUBKTNV-1">
          <mxGeometry x="1273.75" y="197.19" width="60" height="30" as="geometry" />
        </mxCell>
        <mxCell id="hxK-bMpqANBksW4O4nug-72" value="jornada" style="ellipse;whiteSpace=wrap;html=1;" vertex="1" parent="WIyWlLk6GJQsqaUBKTNV-1">
          <mxGeometry x="1458.75" y="230" width="55" height="30" as="geometry" />
        </mxCell>
        <mxCell id="hxK-bMpqANBksW4O4nug-73" value="contrato" style="ellipse;whiteSpace=wrap;html=1;" vertex="1" parent="WIyWlLk6GJQsqaUBKTNV-1">
          <mxGeometry x="1458.75" y="290" width="55" height="30" as="geometry" />
        </mxCell>
        <mxCell id="hxK-bMpqANBksW4O4nug-74" value="seguro" style="ellipse;whiteSpace=wrap;html=1;" vertex="1" parent="WIyWlLk6GJQsqaUBKTNV-1">
          <mxGeometry x="1458.75" y="340" width="55" height="30" as="geometry" />
        </mxCell>
        <mxCell id="hxK-bMpqANBksW4O4nug-75" value="agenda" style="ellipse;whiteSpace=wrap;html=1;" vertex="1" parent="WIyWlLk6GJQsqaUBKTNV-1">
          <mxGeometry x="270" y="170" width="55" height="30" as="geometry" />
        </mxCell>
        <mxCell id="hxK-bMpqANBksW4O4nug-76" value="puntos" style="ellipse;whiteSpace=wrap;html=1;" vertex="1" parent="WIyWlLk6GJQsqaUBKTNV-1">
          <mxGeometry x="210" y="220" width="55" height="30" as="geometry" />
        </mxCell>
        <mxCell id="hxK-bMpqANBksW4O4nug-78" value="Miguelito" style="shape=umlActor;verticalLabelPosition=bottom;verticalAlign=top;html=1;" vertex="1" parent="WIyWlLk6GJQsqaUBKTNV-1">
          <mxGeometry x="170" y="20" width="30" height="60" as="geometry" />
        </mxCell>
        <mxCell id="hxK-bMpqANBksW4O4nug-83" value="Etiqueta" style="ellipse;whiteSpace=wrap;html=1;" vertex="1" parent="WIyWlLk6GJQsqaUBKTNV-1">
          <mxGeometry x="-45" y="330" width="55" height="30" as="geometry" />
        </mxCell>
        <mxCell id="hxK-bMpqANBksW4O4nug-86" value="Estado" style="ellipse;whiteSpace=wrap;html=1;" vertex="1" parent="WIyWlLk6GJQsqaUBKTNV-1">
          <mxGeometry x="-280" y="340" width="55" height="30" as="geometry" />
        </mxCell>
        <mxCell id="hxK-bMpqANBksW4O4nug-104" style="edgeStyle=orthogonalEdgeStyle;rounded=0;orthogonalLoop=1;jettySize=auto;html=1;exitX=1;exitY=0.5;exitDx=0;exitDy=0;entryX=0;entryY=0.5;entryDx=0;entryDy=0;" edge="1" parent="WIyWlLk6GJQsqaUBKTNV-1" source="hxK-bMpqANBksW4O4nug-87" target="hxK-bMpqANBksW4O4nug-6">
          <mxGeometry relative="1" as="geometry" />
        </mxCell>
        <mxCell id="hxK-bMpqANBksW4O4nug-87" value="Seguro Reserva" style="shape=ext;double=1;rounded=0;whiteSpace=wrap;html=1;" vertex="1" parent="WIyWlLk6GJQsqaUBKTNV-1">
          <mxGeometry x="490" y="500" width="203.75" height="70" as="geometry" />
        </mxCell>
        <mxCell id="hxK-bMpqANBksW4O4nug-90" value="Fecha" style="ellipse;whiteSpace=wrap;html=1;" vertex="1" parent="WIyWlLk6GJQsqaUBKTNV-1">
          <mxGeometry x="-365" y="370" width="65" height="30" as="geometry" />
        </mxCell>
        <mxCell id="hxK-bMpqANBksW4O4nug-91" value="Monto" style="ellipse;whiteSpace=wrap;html=1;" vertex="1" parent="WIyWlLk6GJQsqaUBKTNV-1">
          <mxGeometry x="-380" y="420" width="55" height="30" as="geometry" />
        </mxCell>
        <mxCell id="hxK-bMpqANBksW4O4nug-92" value="Cantidad&lt;div&gt;Personas&lt;/div&gt;" style="ellipse;whiteSpace=wrap;html=1;" vertex="1" parent="WIyWlLk6GJQsqaUBKTNV-1">
          <mxGeometry x="-320" y="440" width="75" height="40" as="geometry" />
        </mxCell>
        <mxCell id="hxK-bMpqANBksW4O4nug-96" style="edgeStyle=orthogonalEdgeStyle;rounded=0;orthogonalLoop=1;jettySize=auto;html=1;exitX=0.5;exitY=1;exitDx=0;exitDy=0;" edge="1" parent="WIyWlLk6GJQsqaUBKTNV-1" source="hxK-bMpqANBksW4O4nug-91" target="hxK-bMpqANBksW4O4nug-91">
          <mxGeometry relative="1" as="geometry" />
        </mxCell>
      </root>
    </mxGraphModel>
  </diagram>
</mxfile>
